<svg id="health_icon" data-name="health icon" xmlns="http://www.w3.org/2000/svg" width="110" height="109" viewBox="0 0 110 109">
  <g id="Group_5_Copy_5" data-name="Group 5 Copy 5">
    <path id="Star" d="M55,105.1l-6.385,3.533-5.391-4.9-7.035,1.979-4.106-6-7.306.318-2.6-6.774L14.994,91.9l-.953-7.185L7.369,81.75l.745-7.209-5.8-4.41,2.4-6.844L.093,57.669l3.931-6.111L.836,45.036l5.247-5.048L4.5,32.914l6.28-3.713.1-7.246,6.975-2.177,1.788-7.027,7.294-.525L30.316,5.8l7.22,1.156,4.781-5.484,6.756,2.775L55,0l5.928,4.244,6.756-2.775,4.781,5.484L79.684,5.8l3.375,6.429,7.294.525,1.788,7.027,6.975,2.177.1,7.246,6.28,3.713-1.585,7.075,5.247,5.048-3.188,6.522,3.931,6.111-4.62,5.617,2.4,6.844-5.8,4.41.745,7.209-6.673,2.965L95.006,91.9l-7.183,1.36-2.6,6.774-7.306-.318-4.106,6-7.035-1.979-5.391,4.9Z" fill="#dec98f"/>
    <g id="Oval" transform="translate(9 9)" fill="none" stroke="#96525c" stroke-miterlimit="10" stroke-width="4">
      <ellipse cx="46" cy="45.5" rx="46" ry="45.5" stroke="none"/>
      <ellipse cx="46" cy="45.5" rx="44" ry="43.5" fill="none"/>
    </g>
  </g>
  <g id="care" transform="translate(27 33)">
    <path id="Path" d="M0,8,2.962,1.57A2.6,2.6,0,0,1,6.327.2L6.347.2A2.815,2.815,0,0,1,7.8,3.825L7.192,5.369" transform="translate(43 24)" fill="#fff"/>
    <path id="Path-2" data-name="Path" d="M6.845,17.18C3.118,14.478,0,10.932,0,7.33,0,3.282,2.861,0,6.389,0,9.212,0,11.5,2.626,11.5,5.864,11.5,2.626,13.789,0,16.611,0a6.132,6.132,0,0,1,5.063,2.86A8,8,0,0,1,23,7.33C23,12.39,16.845,17.338,11.5,20A32.914,32.914,0,0,1,6.845,17.18Z" transform="translate(21)" fill="#fff"/>
    <path id="Path-3" data-name="Path" d="M52.874,19.756l-18.28,7.607a8.3,8.3,0,0,1-5.78.222l-19-6.245a4.182,4.182,0,0,0-2.981.142l-.754.329-4.3-9.941L0,7.735,8.912,1.812A10.522,10.522,0,0,1,18.121.543c.125.042.25.086.373.136L35.257,7.093a2.888,2.888,0,0,1-1.974,5.428L22.648,8.893a2.678,2.678,0,0,0-1.753,5.06L33.083,18.2a5.09,5.09,0,0,0,3.347,0L50.4,13.325a3.456,3.456,0,0,1,4.313,1.886c0,.009.007.017.01.025A3.442,3.442,0,0,1,52.874,19.756Z" transform="translate(0 16)" fill="#fff"/>
  </g>
</svg>
