<svg id="Background_Checked_icon" data-name="Background Checked icon" xmlns="http://www.w3.org/2000/svg" width="110" height="109" viewBox="0 0 110 109">
  <g id="Group_5_Copy_3" data-name="Group 5 Copy 3">
    <path id="Star" d="M55,105.1l-6.385,3.533-5.391-4.9-7.035,1.979-4.106-6-7.306.318-2.6-6.774L14.994,91.9l-.953-7.185L7.369,81.75l.745-7.209-5.8-4.41,2.4-6.844L.093,57.669l3.931-6.111L.836,45.036l5.247-5.048L4.5,32.914l6.28-3.713.1-7.246,6.975-2.177,1.788-7.027,7.294-.525L30.316,5.8l7.22,1.156,4.781-5.484,6.756,2.775L55,0l5.928,4.244,6.756-2.775,4.781,5.484L79.684,5.8l3.375,6.429,7.294.525,1.788,7.027,6.975,2.177.1,7.246,6.28,3.713-1.585,7.075,5.247,5.048-3.188,6.522,3.931,6.111-4.62,5.617,2.4,6.844-5.8,4.41.745,7.209-6.673,2.965L95.006,91.9l-7.183,1.36-2.6,6.774-7.306-.318-4.106,6-7.035-1.979-5.391,4.9Z" fill="#dec98f"/>
    <g id="boss" transform="translate(34 29)">
      <path id="Path" d="M26.937,3.39C31.028,4.965,30.6,13.4,30.6,13.4a6.7,6.7,0,0,0-1.5,3.82,1.642,1.642,0,0,1,.405,1.529l-.862,3.541a.927.927,0,0,1-.765.705l-.017.4a4.836,4.836,0,0,1-1.558,3.387l-.192.163-.781.627v3.975l1.024-1.016a.7.7,0,0,1,1.058.065l.063.09,1.015,1.679-.333.805,7.585,1.938A3.113,3.113,0,0,1,37.994,38l.006.2v6.214a1.543,1.543,0,0,1-1.321,1.58L36.538,46H1.462A1.514,1.514,0,0,1,.007,44.566L0,44.413V38.2a3.153,3.153,0,0,1,2.076-3.038l.178-.052,8.539-2.182-.231-.561,1.015-1.679a.705.705,0,0,1,1.09-.185V27.574l-.781-.628a4.794,4.794,0,0,1-1.731-3.288l-.018-.262-.017-.405-.109-.022a.927.927,0,0,1-.617-.559l-.039-.123-.862-3.541a1.648,1.648,0,0,1,.341-1.46A7.423,7.423,0,0,0,7.457,13.33l-.021-.19c-.1-1.09-.4-6.626,3.8-10.125l.242-.2-1.093-.792C12.631.786,16.971.044,19.282,0,23.661-.077,26.006,1.8,26.937,3.39Z" fill="#fff"/>
    </g>
    <g id="Oval" transform="translate(9 9)" fill="none" stroke="#96525c" stroke-miterlimit="10" stroke-width="4">
      <ellipse cx="46" cy="45.5" rx="46" ry="45.5" stroke="none"/>
      <ellipse cx="46" cy="45.5" rx="44" ry="43.5" fill="none"/>
    </g>
    <path id="Path_2" data-name="Path 2" d="M0,4,5.251,9,14,0" transform="translate(70 50)" fill="none" stroke="#fff" stroke-linecap="round" stroke-linejoin="round" stroke-miterlimit="10" stroke-width="3"/>
  </g>
</svg>
