<svg id="qualified_icon" data-name="qualified icon" xmlns="http://www.w3.org/2000/svg" width="110" height="109" viewBox="0 0 110 109">
  <g id="Group_5_Copy_7" data-name="Group 5 Copy 7">
    <path id="Star" d="M55,105.1l-6.385,3.533-5.391-4.9-7.035,1.979-4.106-6-7.306.318-2.6-6.774L14.994,91.9l-.953-7.185L7.369,81.75l.745-7.209-5.8-4.41,2.4-6.844L.093,57.669l3.931-6.111L.836,45.036l5.247-5.048L4.5,32.914l6.28-3.713.1-7.246,6.975-2.177,1.788-7.027,7.294-.525L30.316,5.8l7.22,1.156,4.781-5.484,6.756,2.775L55,0l5.928,4.244,6.756-2.775,4.781,5.484L79.684,5.8l3.375,6.429,7.294.525,1.788,7.027,6.975,2.177.1,7.246,6.28,3.713-1.585,7.075,5.247,5.048-3.188,6.522,3.931,6.111-4.62,5.617,2.4,6.844-5.8,4.41.745,7.209-6.673,2.965L95.006,91.9l-7.183,1.36-2.6,6.774-7.306-.318-4.106,6-7.035-1.979-5.391,4.9Z" fill="#dec98f"/>
    <g id="Oval" transform="translate(9 9)" fill="none" stroke="#96525c" stroke-miterlimit="10" stroke-width="4">
      <ellipse cx="46" cy="45.5" rx="46" ry="45.5" stroke="none"/>
      <ellipse cx="46" cy="45.5" rx="44" ry="43.5" fill="none"/>
    </g>
  </g>
  <g id="policy" transform="translate(36 32)">
    <path id="Shape" d="M34.127,44H1a1,1,0,0,1-.994-.884L0,42.994.226,4.668A4.666,4.666,0,0,1,4.878,0H40a5,5,0,0,1,4.991,4.993V13H36.045V11.568h7.534V4.993a3.821,3.821,0,0,0-3.585-3.805h-.1a5.862,5.862,0,0,0-3.827,1.321,3.333,3.333,0,0,0-.937,2.457V43A1,1,0,0,1,34.127,44ZM6.9,33.2a.89.89,0,0,0-.111,1.771l.111.007H28.027a.89.89,0,0,0,.111-1.771l-.111-.007Zm0-4.111a.89.89,0,0,0-.111,1.771l.111.007H28.027a.89.89,0,0,0,.111-1.771l-.111-.007Zm10.2-23.144h0l-6.92,3.445v6.391a6.121,6.121,0,0,0,2.372,4.56L17.094,23.5l4.548-3.152a6.121,6.121,0,0,0,2.373-4.56V9.4L17.094,5.948Z" transform="translate(0.006)" fill="#fff"/>
    <path id="Path" d="M2.643,5h0a.9.9,0,0,1-.62-.248L.259,3.052A.812.812,0,0,1,.03,2.239a.858.858,0,0,1,.626-.592.9.9,0,0,1,.847.227l1.143,1.1L5.506.245a.9.9,0,0,1,1.238,0,.81.81,0,0,1,0,1.183L3.262,4.755A.9.9,0,0,1,2.643,5Z" transform="translate(14 12)" fill="#fff"/>
  </g>
</svg>
