<svg id="Secure_Payment_icon" data-name="Secure Payment icon" xmlns="http://www.w3.org/2000/svg" width="110" height="109" viewBox="0 0 110 109">
  <g id="Group_5_Copy_4" data-name="Group 5 Copy 4">
    <path id="Star" d="M55,105.1l-6.385,3.533-5.391-4.9-7.035,1.979-4.106-6-7.306.318-2.6-6.774L14.994,91.9l-.953-7.185L7.369,81.75l.745-7.209-5.8-4.41,2.4-6.844L.093,57.669l3.931-6.111L.836,45.036l5.247-5.048L4.5,32.914l6.28-3.713.1-7.246,6.975-2.177,1.788-7.027,7.294-.525L30.316,5.8l7.22,1.156,4.781-5.484,6.756,2.775L55,0l5.928,4.244,6.756-2.775,4.781,5.484L79.684,5.8l3.375,6.429,7.294.525,1.788,7.027,6.975,2.177.1,7.246,6.28,3.713-1.585,7.075,5.247,5.048-3.188,6.522,3.931,6.111-4.62,5.617,2.4,6.844-5.8,4.41.745,7.209-6.673,2.965L95.006,91.9l-7.183,1.36-2.6,6.774-7.306-.318-4.106,6-7.035-1.979-5.391,4.9Z" fill="#dec98f"/>
    <g id="Oval" transform="translate(9 9)" fill="none" stroke="#96525c" stroke-miterlimit="10" stroke-width="4">
      <ellipse cx="46" cy="45.5" rx="46" ry="45.5" stroke="none"/>
      <ellipse cx="46" cy="45.5" rx="44" ry="43.5" fill="none"/>
    </g>
    <g id="Group_5" data-name="Group 5" transform="translate(30 25)">
      <g id="Oval-2" data-name="Oval" transform="translate(0 3)" fill="#fff" stroke-miterlimit="10">
        <path d="M 25.00198554992676 52.9432373046875 C 22.80660247802734 51.5941162109375 18.75051116943359 48.90682220458984 14.75295543670654 45.23982238769531 C 11.40089988708496 42.16495513916016 8.747310638427734 39.01452255249023 6.865900039672852 35.87604522705078 C 4.632455348968506 32.15033340454102 3.5 28.44113349914551 3.5 24.85147857666016 C 3.5 22.79672050476074 5.191549301147461 14.6087121963501 6.616055488586426 8.397737503051758 L 24.61280822753906 3.610068798065186 L 43.23680114746094 8.083283424377441 C 44.72830963134766 14.43371486663818 46.5 22.79186248779297 46.5 24.85147857666016 C 46.5 28.46145629882813 45.35477828979492 32.19189834594727 43.09615707397461 35.93917846679688 C 41.19672393798828 39.09052276611328 38.52002334594727 42.25253295898438 35.14042282104492 45.33738708496094 C 31.1594409942627 48.97116851806641 27.17125129699707 51.61197662353516 25.00198554992676 52.9432373046875 Z" stroke="none"/>
        <path d="M 25.00005149841309 48.8211555480957 C 31.98871612548828 44.20947265625 43.00002288818359 34.83100128173828 43.00014877319336 24.8701000213623 C 42.96429061889648 23.30044364929199 41.71332550048828 17.09178352355957 40.31623077392578 10.98134517669678 L 24.65667915344238 7.220145702362061 L 9.561573028564453 11.2358865737915 C 8.224502563476563 17.22560691833496 7.029624462127686 23.31488037109375 7 24.85147476196289 C 7 34.828125 18.01139259338379 44.2090950012207 25.00005149841309 48.8211555480957 M 25 57 C 25 57 0 43.50930023193359 0 24.85147476196289 C 0 21.12247467041016 3.684149980545044 5.555974960327148 3.684149980545044 5.555974960327148 L 24.5689754486084 0 L 46.14322662353516 5.181825160980225 C 46.14322662353516 5.181825160980225 50 21.10607528686523 50 24.85147476196289 C 50 43.50930023193359 25 57 25 57 Z" stroke="none" fill="#fff"/>
      </g>
      <path id="Rectangle" d="M0,6.222,22.5,0,45,6.222V8L22.5,1.778,0,8Z" transform="translate(3)" fill="#fff"/>
      <path id="_" data-name="$" d="M10.63,31.776a16.585,16.585,0,0,1-4.271-1.737v1.643H.258V21.544h6.1a5.865,5.865,0,0,0,5.773,4.694,3.185,3.185,0,0,0,2.03-.528,1.486,1.486,0,0,0,.645-1.138A1.73,1.73,0,0,0,13.7,23a13.939,13.939,0,0,0-2.486-.94l-2.553-.706L7.415,21A13.34,13.34,0,0,1,3.86,19.432a9.156,9.156,0,0,1-2.745-2.711A7.871,7.871,0,0,1,0,12.3,7.105,7.105,0,0,1,.868,8.742,8.037,8.037,0,0,1,3.2,6.149,11.273,11.273,0,0,1,6.594,4.518a14.023,14.023,0,0,1,4.036-.575V0h4.764V4.529a15.367,15.367,0,0,1,2.065.739,13.491,13.491,0,0,1,1.525.786V4.365h6.171v9.9H18.984a4.362,4.362,0,0,0-.669-1.772,5.644,5.644,0,0,0-1.267-1.385,6.187,6.187,0,0,0-1.654-.915,5.22,5.22,0,0,0-1.83-.34,3.755,3.755,0,0,0-1.9.434,1.374,1.374,0,0,0-.751,1.256,1.666,1.666,0,0,0,1.138,1.537,18.323,18.323,0,0,0,2.792.986l2.765.769.86.24a13.856,13.856,0,0,1,3.625,1.584,8.988,8.988,0,0,1,2.781,2.757A8.139,8.139,0,0,1,26,23.937a7.149,7.149,0,0,1-.856,3.579,7.537,7.537,0,0,1-2.323,2.523,10.724,10.724,0,0,1-3.391,1.514,19.239,19.239,0,0,1-4.036.6V36H10.63Z" transform="translate(12 12)" fill="#dec98f"/>
    </g>
  </g>
</svg>
