<svg xmlns="http://www.w3.org/2000/svg" width="35.672" height="28.886" viewBox="0 0 35.672 28.886">
  <g id="Twitter_Logo_WhiteOnImage" transform="translate(-0.014 -0.057)">
    <g id="Logo__x2014__FIXED">
      <path id="Path" d="M11.205,28.886c13.461,0,20.827-11.117,20.827-20.741,0-.313,0-.625-.014-.938a14.878,14.878,0,0,0,3.654-3.781,14.883,14.883,0,0,1-4.211,1.151A7.34,7.34,0,0,0,34.687.54,14.6,14.6,0,0,1,30.034,2.3a7.328,7.328,0,0,0-12.661,4.99,8.025,8.025,0,0,0,.186,1.663A20.814,20.814,0,0,1,2.469,1.336a7.3,7.3,0,0,0,2.27,9.738,7.427,7.427,0,0,1-3.312-.91v.1a7.313,7.313,0,0,0,5.867,7.15,7.392,7.392,0,0,1-3.3.128A7.316,7.316,0,0,0,10.834,22.6,14.719,14.719,0,0,1,1.741,25.73,14.143,14.143,0,0,1,0,25.631a20.884,20.884,0,0,0,11.205,3.255" transform="translate(0.014 0.057)" fill="#fff"/>
    </g>
  </g>
</svg>
