<svg id="Scam_Prevention_icon" data-name="Scam Prevention icon" xmlns="http://www.w3.org/2000/svg" width="110" height="109" viewBox="0 0 110 109">
  <g id="Group_5_Copy_6" data-name="Group 5 Copy 6">
    <path id="Star" d="M55,105.1l-6.385,3.533-5.391-4.9-7.035,1.979-4.106-6-7.306.318-2.6-6.774L14.994,91.9l-.953-7.185L7.369,81.75l.745-7.209-5.8-4.41,2.4-6.844L.093,57.669l3.931-6.111L.836,45.036l5.247-5.048L4.5,32.914l6.28-3.713.1-7.246,6.975-2.177,1.788-7.027,7.294-.525L30.316,5.8l7.22,1.156,4.781-5.484,6.756,2.775L55,0l5.928,4.244,6.756-2.775,4.781,5.484L79.684,5.8l3.375,6.429,7.294.525,1.788,7.027,6.975,2.177.1,7.246,6.28,3.713-1.585,7.075,5.247,5.048-3.188,6.522,3.931,6.111-4.62,5.617,2.4,6.844-5.8,4.41.745,7.209-6.673,2.965L95.006,91.9l-7.183,1.36-2.6,6.774-7.306-.318-4.106,6-7.035-1.979-5.391,4.9Z" fill="#dec98f"/>
    <g id="Oval" transform="translate(9 9)" fill="none" stroke="#96525c" stroke-miterlimit="10" stroke-width="4">
      <ellipse cx="46" cy="45.5" rx="46" ry="45.5" stroke="none"/>
      <ellipse cx="46" cy="45.5" rx="44" ry="43.5" fill="none"/>
    </g>
  </g>
  <g id="hacker" transform="translate(33 26)">
    <path id="Path" d="M44,3.757V4.73C44,17.443,33.474,26.578,22,30h-.034C10.459,26.109,0,17.108,0,4.73V3.757l.846-.47A49.253,49.253,0,0,1,7.852,0h28.3a49.265,49.265,0,0,1,7.006,3.287Z" transform="translate(0 30)" fill="#fff"/>
    <path id="Path-2" data-name="Path" d="M31,0V18.186C27.314,19.446,22.01,22,15.5,22,9.024,22,4.306,19.65,0,18.186V0Z" transform="translate(7 21)" fill="#dec98f"/>
    <path id="Path-3" data-name="Path" d="M27.556,0H3.714L0,1.8,3.444,9H13.12L15.5,4.025,17.88,9h9.676L31,1.8Z" transform="translate(7 21)" fill="#fff"/>
    <path id="Combined_Shape" data-name="Combined Shape" d="M0,20V13.37H3.385v3.315H7.072L10.459,0H33.541l3.387,16.685h3.687V13.37H44V20Z" fill="#fff"/>
  </g>
</svg>
